<svg width="20" height="17" viewBox="0 0 20 17" fill="none" xmlns="http://www.w3.org/2000/svg">
<path d="M4.02222 7.21821C5.62222 9.83713 8.2 11.9748 11.3444 13.3167L13.7889 11.2808C14.0889 11.0309 14.5333 10.9476 14.9222 11.0587C16.1667 11.4011 17.5111 11.5862 18.8889 11.5862C19.5 11.5862 20 12.0026 20 12.5116V15.7413C20 16.2502 19.5 16.6667 18.8889 16.6667C8.45556 16.6667 0 9.62428 0 0.934666C0 0.425689 0.5 0.00925411 1.11111 0.00925411H5C5.61111 0.00925411 6.11111 0.425689 6.11111 0.934666C6.11111 2.09143 6.33333 3.20192 6.74444 4.23839C6.86667 4.56228 6.77778 4.92319 6.46667 5.18231L4.02222 7.21821ZM19.0667 0.647788L18.2778 0L11.1111 5.83009V1.86008H10V7.41255H16.6667V6.48714H12.0556L19.0667 0.647788Z" fill="#F8F8F8"/>
</svg>
