<svg width="35" height="35" viewBox="0 0 35 35" fill="none" xmlns="http://www.w3.org/2000/svg">
<rect width="35" height="35" rx="10" fill="#D9D9D9"/>
<rect width="35" height="35" rx="10" fill="#2448A8"/>
<path d="M5 9.5C5 8.11929 6.11929 7 7.5 7H27.5C28.8807 7 30 8.11929 30 9.5C30 10.8807 28.8807 12 27.5 12H7.5C6.11929 12 5 10.8807 5 9.5Z" fill="white"/>
<path d="M5 17.5C5 16.1193 6.11929 15 7.5 15H27.5C28.8807 15 30 16.1193 30 17.5C30 18.8807 28.8807 20 27.5 20H7.5C6.11929 20 5 18.8807 5 17.5Z" fill="white"/>
<path d="M5 25.5C5 24.1193 6.11929 23 7.5 23H27.5C28.8807 23 30 24.1193 30 25.5C30 26.8807 28.8807 28 27.5 28H7.5C6.11929 28 5 26.8807 5 25.5Z" fill="white"/>
</svg>
