<svg width="16" height="13" viewBox="0 0 16 13" fill="none" xmlns="http://www.w3.org/2000/svg">
<g clip-path="url(#clip0_112_806)">
<path d="M2 0.125977C1.46957 0.125977 0.960859 0.293862 0.585786 0.592701C0.210714 0.891539 0 1.29685 0 1.71947L0 11.2804C0 11.7031 0.210714 12.1084 0.585786 12.4072C0.960859 12.7061 1.46957 12.8739 2 12.8739H14C14.5304 12.8739 15.0391 12.7061 15.4142 12.4072C15.7893 12.1084 16 11.7031 16 11.2804V1.71947C16 1.29685 15.7893 0.891539 15.4142 0.592701C15.0391 0.293862 14.5304 0.125977 14 0.125977L2 0.125977ZM12.03 4.08581C12.1689 4.19636 12.2479 4.3459 12.2499 4.50232C12.252 4.65873 12.177 4.80956 12.041 4.9224L8.049 8.89817C7.98039 8.95705 7.89758 9.0043 7.80553 9.0371C7.71348 9.06989 7.61407 9.08757 7.51325 9.08905C7.41243 9.09054 7.31227 9.07582 7.21876 9.04576C7.12524 9.0157 7.0403 8.97092 6.969 8.91411L4.324 6.80591C4.25031 6.7512 4.19121 6.68523 4.15022 6.61193C4.10923 6.53863 4.08718 6.45951 4.08541 6.37927C4.08363 6.29904 4.10216 6.21934 4.13988 6.14493C4.1776 6.07052 4.23374 6.00293 4.30496 5.94619C4.37618 5.88945 4.46101 5.84471 4.5544 5.81466C4.64779 5.78461 4.74782 5.76985 4.84852 5.77126C4.94923 5.77268 5.04854 5.79024 5.14054 5.8229C5.23254 5.85556 5.31534 5.90265 5.384 5.96136L7.478 7.62895L10.951 4.10334C11.0195 4.04436 11.1022 3.99698 11.1942 3.96405C11.2861 3.93111 11.3855 3.91329 11.4863 3.91165C11.5871 3.91002 11.6873 3.9246 11.7809 3.95452C11.8745 3.98445 11.9596 4.0291 12.031 4.08581H12.03Z" fill="#2448A8"/>
</g>
<defs>
<clipPath id="clip0_112_806">
<rect width="16" height="12.748" fill="white" transform="translate(0 0.125977)"/>
</clipPath>
</defs>
</svg>
