<svg width="20" height="18" viewBox="0 0 20 18" fill="none" xmlns="http://www.w3.org/2000/svg">
<path d="M6.34108e-09 5.41107L9.68546 10.5416C9.78261 10.5931 9.8905 10.6199 10 10.6199C10.1095 10.6199 10.2174 10.5931 10.3145 10.5416L20 5.412V14.324C20.0001 15.0927 19.7113 15.8322 19.193 16.3909C18.6747 16.9496 17.9662 17.2851 17.2127 17.3287L17.0455 17.3333H2.95455C2.19987 17.3333 1.47379 17.0393 0.925245 16.5114C0.376697 15.9835 0.0472715 15.2618 0.00454557 14.4944L6.34108e-09 14.324V5.41107ZM2.95455 0.666626H17.0455C17.8001 0.666576 18.5262 0.960657 19.0748 1.48854C19.6233 2.01643 19.9527 2.7381 19.9955 3.50551L20 3.67589V3.84626L10 9.14255L6.34108e-09 3.84626V3.67589C-4.94061e-05 2.90724 0.288686 2.16771 0.806974 1.609C1.32526 1.0503 2.03381 0.714773 2.78727 0.671256L2.95455 0.666626H17.0455H2.95455Z" fill="#F8F8F8"/>
</svg>
